<?xml version="1.0" encoding="UTF-8"?>
<svg version="1.1" xmlns="http://www.w3.org/2000/svg" width="498" height="3837">
<path d="M0 0 C164.34 0 328.68 0 498 0 C498 1266.21 498 2532.42 498 3837 C333.66 3837 169.32 3837 0 3837 C0 2570.79 0 1304.58 0 0 Z " fill="#FEFEFE" transform="translate(0,0)"/>
<path d="M0 0 C0.66 0 1.32 0 2 0 C2 153.78 2 307.56 2 466 C20.15 466 38.3 466 57 466 C57 499.33 57 532.66 57 567 C38.85 567 20.7 567 2 567 C2 781.17 2 995.34 2 1216 C20.15 1216 38.3 1216 57 1216 C57 1249.33 57 1282.66 57 1317 C38.85 1317 20.7 1317 2 1317 C2 1531.17 2 1745.34 2 1966 C20.15 1966 38.3 1966 57 1966 C57 1999.33 57 2032.66 57 2067 C38.85 2067 20.7 2067 2 2067 C2 2281.17 2 2495.34 2 2716 C20.15 2716 38.3 2716 57 2716 C57 2749.33 57 2782.66 57 2817 C38.85 2817 20.7 2817 2 2817 C2 3031.17 2 3245.34 2 3466 C20.15 3466 38.3 3466 57 3466 C57 3499.33 57 3532.66 57 3567 C20.04 3567 -16.92 3567 -55 3567 C-55 3533.67 -55 3500.34 -55 3466 C-36.85 3466 -18.7 3466 0 3466 C0 3251.83 0 3037.66 0 2817 C-18.15 2817 -36.3 2817 -55 2817 C-55 2783.67 -55 2750.34 -55 2716 C-36.85 2716 -18.7 2716 0 2716 C0 2501.83 0 2287.66 0 2067 C-18.15 2067 -36.3 2067 -55 2067 C-55 2033.67 -55 2000.34 -55 1966 C-36.85 1966 -18.7 1966 0 1966 C0 1751.83 0 1537.66 0 1317 C-18.15 1317 -36.3 1317 -55 1317 C-55 1283.67 -55 1250.34 -55 1216 C-36.85 1216 -18.7 1216 0 1216 C0 1001.83 0 787.66 0 567 C-18.15 567 -36.3 567 -55 567 C-55 533.67 -55 500.34 -55 466 C-36.85 466 -18.7 466 0 466 C0 312.22 0 158.44 0 0 Z " fill="#040404" transform="translate(247,122)"/>
</svg>
