<?xml version="1.0" encoding="UTF-8"?>
<svg version="1.1" xmlns="http://www.w3.org/2000/svg" width="318" height="486">
<path d="M0 0 C48.18 0 96.36 0 146 0 C146 86.46 146 172.92 146 262 C97.82 262 49.64 262 0 262 C0 175.54 0 89.08 0 0 Z " fill="#FDFDFD" transform="translate(70,96)"/>
<path d="M0 0 C20.79 0 41.58 0 63 0 C63 86.46 63 172.92 63 262 C46.83 262 30.66 262 14 262 C9 249 9 249 8 244 C7.34 244 6.68 244 6 244 C6 242.68 6 241.36 6 240 C5.34 240 4.68 240 4 240 C3.67 237.36 3.34 234.72 3 232 C2.34 232 1.68 232 1 232 C-1.03993514 227.07015675 -2.40652968 223.42039575 -2 218 C-2.66 218 -3.32 218 -4 218 C-4.71758915 215.84723255 -5.43395009 213.69415842 -6.14453125 211.5390625 C-6.66128366 210.00532247 -7.19535203 208.47705764 -7.76171875 206.9609375 C-12.63359212 193.60839566 -15.16120636 178.78399606 -11 165 C-10.34 165 -9.68 165 -9 165 C-8.88769043 164.40703125 -8.77538086 163.8140625 -8.65966797 163.203125 C-7.93929451 160.79725894 -7.0971467 159.61901666 -5.4453125 157.75 C-4.91784424 157.14696045 -4.39037598 156.5439209 -3.84692383 155.92260742 C-3.27868896 155.28814697 -2.7104541 154.65368652 -2.125 154 C-1.25621216 153.01447144 -1.25621216 153.01447144 -0.36987305 152.0090332 C12.21248526 137.78751474 12.21248526 137.78751474 18 132 C20.01886229 131.90151891 22.04124269 131.87027191 24.0625 131.875 C30.64975568 131.49482542 33.76845157 129.5793782 38.390625 125.0078125 C40.19401337 122.99561831 40.19401337 122.99561831 41 120 C41.66 120 42.32 120 43 120 C42.75335571 114.7065038 42.75335571 114.7065038 40.625 110.0625 C35.0311189 106.40496236 26.57708423 107.46140493 20.25 108.4140625 C17.08793836 109.11096424 14.07255914 109.97581362 11 111 C11 111.66 11 112.32 11 113 C10.34 113 9.68 113 9 113 C8.72491028 118.50179449 8.6449524 120.62385095 12 125 C11.6875 128.25 11.6875 128.25 11 131 C10.34 131 9.68 131 9 131 C8.731875 131.57234375 8.46375 132.1446875 8.1875 132.734375 C6.95867364 135.07884634 5.57477824 137.12404938 4 139.25 C3.484375 139.95640625 2.96875 140.6628125 2.4375 141.390625 C1.7259375 142.18726563 1.7259375 142.18726563 1 143 C0.34 143 -0.32 143 -1 143 C-1.268125 143.58265625 -1.53625 144.1653125 -1.8125 144.765625 C-3.01480991 147.02786601 -4.33825913 148.80576318 -6 150.75 C-6.515625 151.36359375 -7.03125 151.9771875 -7.5625 152.609375 C-9 154 -9 154 -11 154 C-11.62601802 138.6451691 -10.5463708 123.53384439 -9.1875 108.25 C-9.10463745 107.29558014 -9.0217749 106.34116028 -8.93640137 105.3578186 C-7.80611803 92.47178792 -6.18913168 79.74917821 -4 67 C-3.34 67 -2.68 67 -2 67 C-1.9690625 65.5459375 -1.9690625 65.5459375 -1.9375 64.0625 C-0.9971982 57.44008878 4.4328776 52.24148995 9.1875 47.875 C12 46 12 46 14.3125 46.125 C16 47 16 47 17 48 C19.46981769 48.1002074 21.90551224 48.13877038 24.375 48.125 C25.06078125 48.12886719 25.7465625 48.13273437 26.453125 48.13671875 C29.57222638 48.13065046 32.01975635 47.99341455 35 47 C36.42088953 45.19645507 37.76719063 43.33325184 39.0625 41.4375 C40.325989 39.59050026 41.62813232 37.76799083 43 36 C43.66 36 44.32 36 45 36 C44.938125 34.741875 44.87625 33.48375 44.8125 32.1875 C44.76029297 31.12595703 44.76029297 31.12595703 44.70703125 30.04296875 C44.12682983 27.81289509 44.12682983 27.81289509 41.96875 26.25 C38.16225319 24.6472645 34.73694248 24.67136662 30.6875 24.8125 C29.57665039 24.83280273 29.57665039 24.83280273 28.44335938 24.85351562 C26.62858925 24.88864021 24.81419712 24.94244028 23 25 C23 25.66 23 26.32 23 27 C22.24074219 27.13277344 21.48148438 27.26554687 20.69921875 27.40234375 C19.70535156 27.57894531 18.71148437 27.75554687 17.6875 27.9375 C16.70136719 28.11152344 15.71523437 28.28554687 14.69921875 28.46484375 C11.91810787 28.95746847 11.91810787 28.95746847 9 30 C8.855625 31.2375 8.71125 32.475 8.5625 33.75 C7.67137746 41.3881932 7.67137746 41.3881932 5.37109375 43.484375 C4.73300781 43.90203125 4.09492188 44.3196875 3.4375 44.75 C2.79683594 45.17796875 2.15617188 45.6059375 1.49609375 46.046875 C1.00238281 46.36140625 0.50867188 46.6759375 0 47 C-0.08150744 44.93816367 -0.1394194 42.87538651 -0.1875 40.8125 C-0.22230469 39.66394531 -0.25710937 38.51539063 -0.29296875 37.33203125 C0.03033888 33.65494583 0.75405791 31.89716274 3 29 C4.75390625 27.7421875 4.75390625 27.7421875 6.5625 26.875 C10.16555096 25.25524361 10.16555096 25.25524361 12 22 C12.63385656 16.29529096 10.97781729 12.62628198 7.5703125 8.1015625 C4.4383897 4.17206957 4.4383897 4.17206957 0 2 C0 1.34 0 0.68 0 0 Z " fill="#FCFCFC" transform="translate(153,96)"/>
<path d="M0 0 C2.64 0 5.28 0 8 0 C8 0.66 8 1.32 8 2 C8.58523437 2.08765625 9.17046875 2.1753125 9.7734375 2.265625 C14.66734077 3.8797545 18.04480678 9.25573412 20.4375 13.625 C21.45583526 17.92463776 21.74965866 20.74057344 19.4375 24.625 C17.34895705 26.65999057 15.81641527 27.76484849 13.3125 29.125 C9.74194649 30.65778568 9.74194649 30.65778568 9 34 C8.931009 36.06145107 8.91532273 38.12501401 8.9375 40.1875 C8.94652344 41.27417969 8.95554687 42.36085937 8.96484375 43.48046875 C8.97644531 44.31191406 8.98804688 45.14335937 9 46 C12.30662442 43.80523012 12.30662442 43.80523012 15 41 C15.24041983 38.90792571 15.06486136 37.02838998 14.890625 34.93359375 C15 33 15 33 17.3125 30.0625 C20.69710231 27.46501451 23.03671261 26.86945431 27.1875 26.9375 C29.0746875 26.9684375 29.0746875 26.9684375 31 27 C31 26.34 31 25.68 31 25 C37.27635017 23.67866312 44.13587503 22.65561481 50.0625 25.4375 C52 27 52 27 53 28 C53.14115161 30.67058851 53.04247107 33.32432238 53 36 C52.34 36 51.68 36 51 36 C50.79375 36.680625 50.5875 37.36125 50.375 38.0625 C48.56506537 41.92917854 46.10155625 45.06417577 43 48 C39.42914986 49.19028338 36.1539317 49.18398398 32.4375 49.1875 C31.75236328 49.19974609 31.06722656 49.21199219 30.36132812 49.22460938 C28.57265888 49.22987533 26.78451152 49.12200021 25 49 C24.34 48.34 23.68 47.68 23 47 C19.78348894 47.15392545 18.30845225 47.73165784 15.8671875 49.85546875 C11.34810667 55.14545161 7.34760733 59.99244187 6 67 C5.34 67 4.68 67 4 67 C3.92652344 68.36318359 3.92652344 68.36318359 3.8515625 69.75390625 C3.77679688 71.01074219 3.70203125 72.26757812 3.625 73.5625 C3.52058594 75.38974609 3.52058594 75.38974609 3.4140625 77.25390625 C3.12066578 81.19279045 2.59865116 85.08383838 2.05859375 88.99609375 C0.94560975 97.14667793 0.14822397 105.30564737 -0.5625 113.5 C-0.62692291 114.23047546 -0.69134583 114.96095093 -0.75772095 115.71356201 C-1.87643712 128.46411357 -2.62212855 141.20449105 -3 154 C-2.34 154 -1.68 154 -1 154 C-0.731875 153.41734375 -0.46375 152.8346875 -0.1875 152.234375 C1.01480991 149.97213399 2.33825913 148.19423682 4 146.25 C4.515625 145.63640625 5.03125 145.0228125 5.5625 144.390625 C7 143 7 143 9 143 C9.268125 142.42765625 9.53625 141.8553125 9.8125 141.265625 C11.04132636 138.92115366 12.42522176 136.87595062 14 134.75 C14.515625 134.04359375 15.03125 133.3371875 15.5625 132.609375 C16.036875 132.07828125 16.51125 131.5471875 17 131 C17.66 131 18.32 131 19 131 C19.37936287 126.70503541 19.37936287 126.70503541 17.5 123 C15.44533708 120.26044945 15.70938051 118.3421241 16 115 C16.33 114.34 16.66 113.68 17 113 C17.66 113 18.32 113 19 113 C19 112.34 19 111.68 19 111 C25.17707683 107.61731507 30.5758485 106.84898444 37.5625 106.75 C38.65691406 106.72421875 39.75132812 106.6984375 40.87890625 106.671875 C45.32643299 107.13944978 47.88384185 108.88384185 51 112 C51.26991906 114.68839385 51.08737357 117.29141936 51 120 C50.34 120 49.68 120 49 120 C48.91234375 120.57363281 48.8246875 121.14726562 48.734375 121.73828125 C47.19340869 126.48412962 43.16560609 129.50994496 39 132 C35.828125 132.421875 35.828125 132.421875 32.5 132.4375 C27.3106407 132.54008036 24.95583711 133.1885991 21.25 136.875 C19.79498615 138.55079292 18.37923084 140.26130235 17 142 C16.25105469 142.89976562 15.50210938 143.79953125 14.73046875 144.7265625 C13.21000799 146.56562066 11.70453113 148.41717722 10.21484375 150.28125 C7.44507609 153.68117643 4.5109239 156.90884404 1.53125 160.125 C-0.20578677 162.02544961 -0.20578677 162.02544961 -1 165 C-1.66 165 -2.32 165 -3 165 C-4.52210809 175.08396609 -4.18128517 184.11801689 -2.25 194.125 C-2.09313721 194.95999023 -1.93627441 195.79498047 -1.7746582 196.65527344 C-0.71342384 201.82045634 0.85934861 206.34145003 3.1796875 211.0793457 C4.19757902 213.4626054 4.33055422 215.43820478 4 218 C4.66 218 5.32 218 6 218 C7.20465156 222.65798604 8.28547412 227.23649415 9 232 C9.66 232 10.32 232 11 232 C11.33 234.64 11.66 237.28 12 240 C12.66 240 13.32 240 14 240 C14 241.32 14 242.64 14 244 C14.66 244 15.32 244 16 244 C18.21682402 249.95098874 20.36307418 255.86152818 22 262 C18.7 262 15.4 262 12 262 C11.0234375 259.78645833 10.046875 257.57291667 9.0703125 255.359375 C8.38661772 253.8522522 7.65831339 252.36408326 6.875 250.90625 C5.65261975 248.24320731 5.86870417 245.88850818 6 243 C5.34 243 4.68 243 4 243 C3.71125 242.071875 3.4225 241.14375 3.125 240.1875 C2.1125 236.90208333 2.1125 236.90208333 0 234 C-0.39731871 232.24241653 -0.72415257 230.46819369 -1 228.6875 C-1.6877246 224.603802 -2.64123205 220.91644879 -4 217 C-4.76478324 213.90779532 -5.50049338 210.81036828 -6.21875 207.70703125 C-6.90614777 204.81335673 -6.90614777 204.81335673 -9 202 C-9.58055565 199.6388885 -10.09460985 197.2609948 -10.5625 194.875 C-11.07051377 190.61258681 -11.07051377 190.61258681 -13 187 C-13.35607157 185.07003224 -13.65866454 183.13013051 -13.9375 181.1875 C-14.11152344 180.01316406 -14.28554687 178.83882812 -14.46484375 177.62890625 C-14.64144531 176.43136719 -14.81804687 175.23382813 -15 174 C-16.2057413 166.01720463 -16.2057413 166.01720463 -18.125 158.1875 C-19.08975206 154.67304607 -19.14805795 151.62741975 -19 148 C-19.66 148 -20.32 148 -21 148 C-22.54430398 144.47745538 -23.36281995 141.30476608 -23.875 137.5 C-25.23117716 126.49374805 -25.23117716 126.49374805 -30 117 C-30.31098093 115.29590855 -30.61775597 113.59089504 -30.89868164 111.8815918 C-32.27402707 102.76710716 -32.27402707 102.76710716 -38 96 C-41.3080744 94.98017952 -44.56356979 94.38701544 -48 94 C-48 93.34 -48 92.68 -48 92 C-49.36125 91.814375 -49.36125 91.814375 -50.75 91.625 C-55.48168749 90.7150601 -58.12957665 89.22663348 -61.25 85.5625 C-62.03117187 84.66724609 -62.03117187 84.66724609 -62.828125 83.75390625 C-64 82 -64 82 -64 79 C-64.66 79 -65.32 79 -66 79 C-66.51148296 75.86716684 -66.64400709 73.12095744 -66 70 C-62.50837649 65.36187324 -57.73522248 62.01209808 -52 61 C-47.40730707 60.4346381 -43.06867261 59.94883001 -38.83984375 62.09765625 C-34.65175666 65.4321205 -32.62082728 68.9468326 -31 74 C-31 74.99 -31 75.98 -31 77 C-30.34 77 -29.68 77 -29 77 C-29.08701172 78.79244141 -29.08701172 78.79244141 -29.17578125 80.62109375 C-29.73316293 91.82950086 -29.73316293 91.82950086 -25.4296875 101.90234375 C-18.82792452 111.58853698 -15 126.31261255 -15 138 C-14.34 138 -13.68 138 -13 138 C-13.01571045 137.13217896 -13.01571045 137.13217896 -13.03173828 136.24682617 C-13.36544757 115.01826886 -13.36544757 115.01826886 -11 106 C-10.34 106 -9.68 106 -9 106 C-9.01160156 105.28972656 -9.02320313 104.57945312 -9.03515625 103.84765625 C-9.04417969 102.92855469 -9.05320313 102.00945312 -9.0625 101.0625 C-9.07410156 100.14597656 -9.08570313 99.22945313 -9.09765625 98.28515625 C-9 96 -9 96 -8 95 C-7.01913347 88.15480382 -6.8170386 81.40774177 -6.8125 74.5 C-6.79413086 73.02853516 -6.79413086 73.02853516 -6.77539062 71.52734375 C-6.75992612 63.7847803 -7.35347666 56.35195946 -11.125 49.4375 C-11.74375 48.303125 -12.3625 47.16875 -13 46 C-14.53720703 46.05220703 -14.53720703 46.05220703 -16.10546875 46.10546875 C-17.46612936 46.13362035 -18.8268078 46.16091904 -20.1875 46.1875 C-21.19780273 46.22520508 -21.19780273 46.22520508 -22.22851562 46.26367188 C-28.40384925 46.35404261 -31.2983573 44.54694791 -35.75 40.5 C-39.59403326 36.22885193 -39.2667674 32.16023123 -39.23046875 26.671875 C-38.90900988 22.94513153 -37.61084608 20.61084608 -35 18 C-33.00041636 17.95919217 -30.99954746 17.95745644 -29 18 C-29 18.66 -29 19.32 -29 20 C-28.40598389 20.11915771 -27.81196777 20.23831543 -27.19995117 20.36108398 C-23.66378789 21.38806648 -21.10524356 23.75840924 -18.3125 26.0625 C-17.71888672 26.51560547 -17.12527344 26.96871094 -16.51367188 27.43554688 C-13.24465265 30.1305308 -11.66655931 31.94748551 -11.15625 36.234375 C-11.1046875 37.47703125 -11.053125 38.7196875 -11 40 C-9.52260825 43.97759316 -6.8447691 48.07761545 -3 50 C-3.020625 49.00871094 -3.04125 48.01742187 -3.0625 46.99609375 C-2.99929212 42.95473983 -2.57964129 39.0534086 -2 35.0625 C-1.90460938 34.37865234 -1.80921875 33.69480469 -1.7109375 32.99023438 C-1.47820863 31.32622293 -1.23971452 29.66301947 -1 28 C-1.60457031 27.87625 -2.20914063 27.7525 -2.83203125 27.625 C-6.34316252 26.61278198 -7.78806652 24.86953533 -10 22 C-10.94333992 18.28439584 -11.7561154 14.5122308 -10 11 C-9.34 11 -8.68 11 -8 11 C-7.7525 10.443125 -7.505 9.88625 -7.25 9.3125 C-5.77075182 6.57589087 -4.06532561 4.32349131 -2 2 C-1.34 2 -0.68 2 0 2 C0 1.34 0 0.68 0 0 Z " fill="#080809" transform="translate(145,96)"/>
<path d="M0 0 C2.51083114 1.25541557 2.87125446 2.50063488 4 5 C4.33 3.68 4.66 2.36 5 1 C6.32 1 7.64 1 9 1 C8.93039063 2.38445312 8.93039063 2.38445312 8.859375 3.796875 C8.63495948 11.90789312 9.17159746 19.46761543 10.75 27.4375 C10.90694336 28.25250977 11.06388672 29.06751953 11.22558594 29.90722656 C12.29766874 34.96721047 13.91166765 39.41891868 16.1796875 44.06835938 C17.19394317 46.45669 17.33104571 48.43439573 17 51 C17.66 51 18.32 51 19 51 C20.20465156 55.65798604 21.28547412 60.23649415 22 65 C22.66 65 23.32 65 24 65 C24.33 67.64 24.66 70.28 25 73 C25.66 73 26.32 73 27 73 C27 74.32 27 75.64 27 77 C27.66 77 28.32 77 29 77 C31.21682402 82.95098874 33.36307418 88.86152818 35 95 C31.7 95 28.4 95 25 95 C24.0234375 92.78645833 23.046875 90.57291667 22.0703125 88.359375 C21.38661772 86.8522522 20.65831339 85.36408326 19.875 83.90625 C18.65261975 81.24320731 18.86870417 78.88850818 19 76 C18.34 76 17.68 76 17 76 C16.71125 75.071875 16.4225 74.14375 16.125 73.1875 C15.1125 69.90208333 15.1125 69.90208333 13 67 C12.60268129 65.24241653 12.27584743 63.46819369 12 61.6875 C11.3122754 57.603802 10.35876795 53.91644879 9 50 C8.23521676 46.90779532 7.49950662 43.81036828 6.78125 40.70703125 C6.09385223 37.81335673 6.09385223 37.81335673 4 35 C3.41944435 32.6388885 2.90539015 30.2609948 2.4375 27.875 C1.92948623 23.61258681 1.92948623 23.61258681 0 20 C-0.400383 17.14471393 -0.7518227 14.30263513 -1.0625 11.4375 C-1.15337891 10.63119141 -1.24425781 9.82488281 -1.33789062 8.99414062 C-1.56247449 6.99652623 -1.78173236 4.9983144 -2 3 C-1.01 3.495 -1.01 3.495 0 4 C0 2.68 0 1.36 0 0 Z " fill="#151515" transform="translate(132,263)"/>
<path d="M0 0 C2 2 2 2 2.1953125 3.9453125 C2.13020833 5.96354167 2.06510417 7.98177083 2 10 C1.34 10 0.68 10 0 10 C-0.10054687 10.58265625 -0.20109375 11.1653125 -0.3046875 11.765625 C-1.41423405 15.33113415 -3.46730916 17.19156069 -6.2734375 19.57421875 C-11.70218641 22.41303444 -18.06615225 21.772494 -24 21 C-26.453125 19.96484375 -26.453125 19.96484375 -28 19 C-27.67 18.38125 -27.34 17.7625 -27 17.125 C-25.85806765 15.08981656 -25.85806765 15.08981656 -26 13 C-26.66 13 -27.32 13 -28 13 C-28 12.01 -28 11.02 -28 10 C-28.66 10 -29.32 10 -30 10 C-31.44332494 3.74559194 -31.44332494 3.74559194 -29.625 0.6875 C-21.60712327 -4.46684933 -7.80993932 -5.61168717 0 0 Z " fill="#030203" transform="translate(194,206)"/>
<path d="M0 0 C0.33 0 0.66 0 1 0 C1.13277344 0.77085937 1.26554688 1.54171875 1.40234375 2.3359375 C1.57894531 3.33882812 1.75554687 4.34171875 1.9375 5.375 C2.11152344 6.37273437 2.28554687 7.37046875 2.46484375 8.3984375 C2.87712062 10.96909656 2.87712062 10.96909656 4 13 C4.66 13 5.32 13 6 13 C5.96519531 12.37351563 5.93039063 11.74703125 5.89453125 11.1015625 C5.86746094 10.28429687 5.84039062 9.46703125 5.8125 8.625 C5.77769531 7.81289062 5.74289063 7.00078125 5.70703125 6.1640625 C5.80371094 5.44992188 5.90039062 4.73578125 6 4 C6.99 3.34 7.98 2.68 9 2 C8.85949111 5.8127154 8.71161266 9.62511216 8.5625 13.4375 C8.52318359 14.50677734 8.48386719 15.57605469 8.44335938 16.67773438 C8.22978587 22.04992957 7.88798908 27.34365346 7.23852539 32.67944336 C6.74728725 37.45858204 6.62219172 42.2635429 6.4375 47.0625 C6.39431641 48.11888672 6.35113281 49.17527344 6.30664062 50.26367188 C6.20162663 52.84234879 6.09947123 55.42110435 6 58 C6.66 58 7.32 58 8 58 C8.268125 57.41734375 8.53625 56.8346875 8.8125 56.234375 C10.01480991 53.97213399 11.33825913 52.19423682 13 50.25 C13.515625 49.63640625 14.03125 49.0228125 14.5625 48.390625 C16 47 16 47 18 47 C18.268125 46.42765625 18.53625 45.8553125 18.8125 45.265625 C20.04132636 42.92115366 21.42522176 40.87595062 23 38.75 C23.515625 38.04359375 24.03125 37.3371875 24.5625 36.609375 C25.036875 36.07828125 25.51125 35.5471875 26 35 C26.66 35 27.32 35 28 35 C28.37936287 30.70503541 28.37936287 30.70503541 26.5 27 C24.43466598 24.24622131 24.63509705 22.35710718 25 19 C25.66 18.34 26.32 17.68 27 17 C27.495 20.465 27.495 20.465 28 24 C28.66 24 29.32 24 30 24 C30 24.99 30 25.98 30 27 C30.66 27 31.32 27 32 27 C32.625 28.875 32.625 28.875 33 31 C32.34 31.66 31.68 32.32 31 33 C31.33 32.67 31.66 32.34 32 32 C32.66 32.66 33.32 33.32 34 34 C36.36509361 34.30059943 38.74441881 34.49515012 41.125 34.625 C42.40632813 34.69976562 43.68765625 34.77453125 45.0078125 34.8515625 C45.99523437 34.90054688 46.98265625 34.94953125 48 35 C48 35.33 48 35.66 48 36 C47.16597656 35.96777344 46.33195312 35.93554688 45.47265625 35.90234375 C39.13752749 35.96765436 34.8606629 36.28071601 30.25 40.875 C28.79067056 42.54703613 27.37591945 44.2586807 26 46 C24.37564992 48.02135577 22.75065445 50.0421931 21.125 52.0625 C20.40570313 53.00222656 19.68640625 53.94195312 18.9453125 54.91015625 C18.30335938 55.59980469 17.66140625 56.28945312 17 57 C14.66666667 57 12.33333333 57 10 57 C9.54625 57.515625 9.0925 58.03125 8.625 58.5625 C8.08875 59.036875 7.5525 59.51125 7 60 C4.98991241 59.73418237 2.986863 59.40433465 1 59 C0.85676186 45.96532922 1.28124064 33.0146785 2 20 C1.05711817 24.9600338 0.69751789 29.84514574 0.4375 34.875 C0.39431641 35.65875 0.35113281 36.4425 0.30664062 37.25 C0.20146649 39.16650649 0.10032075 41.08323333 0 43 C-0.33 43 -0.66 43 -1 43 C-1.33 37.06 -1.66 31.12 -2 25 C-2.33 31.93 -2.66 38.86 -3 46 C-4.32 45.34 -5.64 44.68 -7 44 C-7 42.02 -7 40.04 -7 38 C-6.67 39.32 -6.34 40.64 -6 42 C-5.34 42 -4.68 42 -4 42 C-4.01047363 41.42145264 -4.02094727 40.84290527 -4.03173828 40.24682617 C-4.36544757 19.01826886 -4.36544757 19.01826886 -2 10 C-1.34 10 -0.68 10 0 10 C0 6.7 0 3.4 0 0 Z " fill="#0A090A" transform="translate(136,192)"/>
<path d="M0 0 C1.4540625 0.0309375 1.4540625 0.0309375 2.9375 0.0625 C2.9375 0.7225 2.9375 1.3825 2.9375 2.0625 C3.53151611 2.18165771 4.12553223 2.30081543 4.73754883 2.42358398 C8.27371211 3.45056648 10.83225644 5.82090924 13.625 8.125 C14.21861328 8.57810547 14.81222656 9.03121094 15.42382812 9.49804688 C18.69284735 12.1930308 20.27094069 14.00998551 20.78125 18.296875 C20.85859375 20.16085938 20.85859375 20.16085938 20.9375 22.0625 C22.41489175 26.04009316 25.0927309 30.14011545 28.9375 32.0625 C28.9375 29.7525 28.9375 27.4425 28.9375 25.0625 C29.2675 25.0625 29.5975 25.0625 29.9375 25.0625 C29.9375 28.0325 29.9375 31.0025 29.9375 34.0625 C28.2875 33.7325 26.6375 33.4025 24.9375 33.0625 C24.9375 35.3725 24.9375 37.6825 24.9375 40.0625 C22.9375 36.0625 20.9375 32.0625 18.9375 28.0625 C17.40029297 28.11470703 17.40029297 28.11470703 15.83203125 28.16796875 C14.47137064 28.19612035 13.1106922 28.22341904 11.75 28.25 C11.07646484 28.27513672 10.40292969 28.30027344 9.70898438 28.32617188 C3.53365075 28.41654261 0.6391427 26.60944791 -3.8125 22.5625 C-7.65653326 18.29135193 -7.3292674 14.22273123 -7.29296875 8.734375 C-6.86629981 3.78790797 -5.06371091 0.10334104 0 0 Z " fill="#070708" transform="translate(113.0625,113.9375)"/>
<path d="M0 0 C1.43088528 2.86177057 0.59991697 4.93375773 0 8 C0.66 8 1.32 8 2 8 C2 6.35 2 4.7 2 3 C2.66 3.33 3.32 3.66 4 4 C4.66 3.34 5.32 2.68 6 2 C6 2.99 6 3.98 6 5 C7.65 5.33 9.3 5.66 11 6 C11.3192654 11.32109006 10.57401695 14.36676949 8 19 C7.31363375 21.23525035 7.31363375 21.23525035 7 23 C6.34 23 5.68 23 5 23 C4.95101562 23.90878906 4.90203125 24.81757813 4.8515625 25.75390625 C4.44399363 32.60527942 3.9382066 39.43371235 3.125 46.25 C2.98320312 47.47203125 2.84140625 48.6940625 2.6953125 49.953125 C1.95410156 53.20112799 1.32829314 53.8322788 -1 56 C-1.57323807 58.27161255 -1.57323807 58.27161255 -1.6875 60.6875 C-1.75324219 61.49574219 -1.81898438 62.30398437 -1.88671875 63.13671875 C-1.92410156 63.75160156 -1.96148437 64.36648437 -2 65 C-3.32 64.67 -4.64 64.34 -6 64 C-6.19872431 62.02192882 -6.38333034 60.04243817 -6.5625 58.0625 C-6.66691406 56.96035156 -6.77132812 55.85820312 -6.87890625 54.72265625 C-6.97086078 51.89579598 -6.88197209 49.53191029 -6.53515625 46.76171875 C-5.8667953 41.41879262 -5.84996785 36.12878322 -5.875 30.75 C-5.87693359 29.74380615 -5.87886719 28.7376123 -5.88085938 27.70092773 C-5.92302296 20.4259521 -6.22206435 13.23757986 -7 6 C-5.02 6.66 -3.04 7.32 -1 8 C-1.020625 6.865625 -1.04125 5.73125 -1.0625 4.5625 C-1 1 -1 1 0 0 Z " fill="#0D0C0E" transform="translate(144,140)"/>
<path d="M0 0 C0.33 0 0.66 0 1 0 C0.43136079 13.67293897 -0.19839672 27.33863352 -1 41 C-0.34 41 0.32 41 1 41 C1 34.73 1 28.46 1 22 C1.33 22 1.66 22 2 22 C2 28.6 2 35.2 2 42 C4.475 41.505 4.475 41.505 7 41 C7.33 40.01 7.66 39.02 8 38 C9.485 38.495 9.485 38.495 11 39 C11.99 38.34 12.98 37.68 14 37 C13.41068228 40.35174456 12.30386572 42.08695198 10 44.5625 C7.88166863 46.84887208 7.01082314 47.96753059 6 51 C5.34 51 4.68 51 4 51 C4 51.99 4 52.98 4 54 C3.34 54 2.68 54 2 54 C1.67 54.66 1.34 55.32 1 56 C1 55.34 1 54.68 1 54 C0.34 54 -0.32 54 -1 54 C-1.33 56.31 -1.66 58.62 -2 61 C-3 59 -4 57 -5 55 C-5.33 55.99 -5.66 56.98 -6 58 C-6.99 57.34 -7.98 56.68 -9 56 C-9.29656579 54.05584646 -9.58063772 52.10743272 -9.75390625 50.1484375 C-10.11543672 46.99221907 -11.1141155 44.04522798 -12 41 C-12.92304877 35.92323178 -13.09012886 31.13734486 -13 26 C-12.34 26 -11.68 26 -11 26 C-11 23.36 -11 20.72 -11 18 C-9 20 -9 20 -8 23.5625 C-7.67 24.696875 -7.34 25.83125 -7 27 C-6.34 27.33 -5.68 27.66 -5 28 C-5 21.07 -5 14.14 -5 7 C-4.34 6.67 -3.68 6.34 -3 6 C-2.67 6.66 -2.34 7.32 -2 8 C-1.34 5.36 -0.68 2.72 0 0 Z " fill="#060506" transform="translate(138,210)"/>
<path d="M0 0 C0.33 0 0.66 0 1 0 C0.91298828 1.79244141 0.91298828 1.79244141 0.82421875 3.62109375 C0.2584564 14.82291807 0.2584564 14.82291807 4.56640625 24.8828125 C10.56695826 33.74466316 14.3742446 46.30448326 14 57 C13.67 57 13.34 57 13 57 C12.67 58.98 12.34 60.96 12 63 C11.34 63 10.68 63 10 63 C10 65.64 10 68.28 10 71 C9.690625 70.360625 9.38125 69.72125 9.0625 69.0625 C8.1654837 67.06389179 8.1654837 67.06389179 7 66 C6.69620253 64.25542045 6.43311228 62.50371757 6.1875 60.75 C4.80974628 49.61763332 4.80974628 49.61763332 0 40 C-0.31098093 38.29590855 -0.61775597 36.59089504 -0.89868164 34.8815918 C-2.27402707 25.76710716 -2.27402707 25.76710716 -8 19 C-11.3080744 17.98017952 -14.56356979 17.38701544 -18 17 C-18 16.34 -18 15.68 -18 15 C-18.9075 14.87625 -19.815 14.7525 -20.75 14.625 C-25.65253893 13.68220405 -27.27314222 13.0095247 -30.25 8.875 C-30.8275 7.92625 -31.405 6.9775 -32 6 C-30.25 5.25 -30.25 5.25 -28 5 C-25.22666082 7.21867135 -24.13126558 8.60620325 -23 12 C-21.02 11.67 -19.04 11.34 -17 11 C-17 11.66 -17 12.32 -17 13 C-13.37 13 -9.74 13 -6 13 C-5.67 12.34 -5.34 11.68 -5 11 C-3.68 10.67 -2.36 10.34 -1 10 C-0.67 6.7 -0.34 3.4 0 0 Z " fill="#0C0C0C" transform="translate(115,173)"/>
<path d="M0 0 C2 2 2 2 2.125 4.625 C2.08375 5.40875 2.0425 6.1925 2 7 C2.66 7 3.32 7 4 7 C4 7.99 4 8.98 4 10 C4.66 10 5.32 10 6 10 C6.625 11.875 6.625 11.875 7 14 C6.34 14.66 5.68 15.32 5 16 C5.33 15.67 5.66 15.34 6 15 C6.66 15.66 7.32 16.32 8 17 C10.36509361 17.30059943 12.74441881 17.49515012 15.125 17.625 C16.40632813 17.69976562 17.68765625 17.77453125 19.0078125 17.8515625 C20.48894531 17.92503906 20.48894531 17.92503906 22 18 C22 18.33 22 18.66 22 19 C21.16597656 18.96777344 20.33195312 18.93554688 19.47265625 18.90234375 C13.13752749 18.96765436 8.8606629 19.28071601 4.25 23.875 C2.79067056 25.54703613 1.37591945 27.2586807 0 29 C-1.62435008 31.02135577 -3.24934555 33.0421931 -4.875 35.0625 C-5.95394531 36.47208984 -5.95394531 36.47208984 -7.0546875 37.91015625 C-7.69664062 38.59980469 -8.33859375 39.28945312 -9 40 C-11.33333333 40 -13.66666667 40 -16 40 C-16.33 40.66 -16.66 41.32 -17 42 C-18.32 42 -19.64 42 -21 42 C-21 35.73 -21 29.46 -21 23 C-20.67 23 -20.34 23 -20 23 C-20 28.94 -20 34.88 -20 41 C-19.34 41 -18.68 41 -18 41 C-17.5978125 40.12601563 -17.5978125 40.12601563 -17.1875 39.234375 C-15.98519009 36.97213399 -14.66174087 35.19423682 -13 33.25 C-12.484375 32.63640625 -11.96875 32.0228125 -11.4375 31.390625 C-10 30 -10 30 -8 30 C-7.731875 29.42765625 -7.46375 28.8553125 -7.1875 28.265625 C-5.95867364 25.92115366 -4.57477824 23.87595062 -3 21.75 C-2.484375 21.04359375 -1.96875 20.3371875 -1.4375 19.609375 C-0.963125 19.07828125 -0.48875 18.5471875 0 18 C0.66 18 1.32 18 2 18 C2.37936287 13.70503541 2.37936287 13.70503541 0.5 10 C-1.55466292 7.26044945 -1.29061949 5.3421241 -1 2 C-0.67 1.34 -0.34 0.68 0 0 Z " fill="#292829" transform="translate(162,209)"/>
<path d="M0 0 C1.43088528 2.86177057 0.59991697 4.93375773 0 8 C0.66 8 1.32 8 2 8 C2 6.35 2 4.7 2 3 C2.66 3.33 3.32 3.66 4 4 C4.66 3.34 5.32 2.68 6 2 C6 2.99 6 3.98 6 5 C7.65 5.33 9.3 5.66 11 6 C11.49230769 12.4 11.49230769 12.4 9 15.4375 C8.01 16.2109375 8.01 16.2109375 7 17 C7 16.34 7 15.68 7 15 C1.38953162 19.9679287 0.64643498 27.88921522 0 35 C-0.33 35 -0.66 35 -1 35 C-1.33 30.38 -1.66 25.76 -2 21 C-2.33 27.6 -2.66 34.2 -3 41 C-3.33 41 -3.66 41 -4 41 C-4.33 32.42 -4.66 23.84 -5 15 C-4.34 15 -3.68 15 -3 15 C-3.020625 14.030625 -3.04125 13.06125 -3.0625 12.0625 C-3 9 -3 9 -2 8 C-1.835 6.845 -1.67 5.69 -1.5 4.5 C-1 1 -1 1 0 0 Z " fill="#020203" transform="translate(144,140)"/>
<path d="M0 0 C2.51083114 1.25541557 2.87125446 2.50063488 4 5 C4.33 3.68 4.66 2.36 5 1 C6.32 1 7.64 1 9 1 C8.98839844 2.03898437 8.97679687 3.07796875 8.96484375 4.1484375 C8.9058662 11.83026349 8.97279335 19.36932205 10 27 C9.34 26.67 8.68 26.34 8 26 C5.94074319 29.08888522 5.7609626 29.70935927 5.875 33.1875 C5.91625 34.445625 5.9575 35.70375 6 37 C3.23265149 34.23265149 3.17876541 31.75249424 2.4375 27.9375 C1.9342384 23.64293125 1.9342384 23.64293125 0 20 C-0.400383 17.14471393 -0.7518227 14.30263513 -1.0625 11.4375 C-1.15337891 10.63119141 -1.24425781 9.82488281 -1.33789062 8.99414062 C-1.56247449 6.99652623 -1.78173236 4.9983144 -2 3 C-1.01 3.495 -1.01 3.495 0 4 C0 2.68 0 1.36 0 0 Z " fill="#0F0F10" transform="translate(132,263)"/>
<path d="M0 0 C0.33 0 0.66 0 1 0 C1.02902429 3.27081471 1.04680684 6.5415963 1.0625 9.8125 C1.07087891 10.74126953 1.07925781 11.67003906 1.08789062 12.62695312 C1.09111328 13.51962891 1.09433594 14.41230469 1.09765625 15.33203125 C1.10289307 16.15421143 1.10812988 16.9763916 1.11352539 17.82348633 C1 20 1 20 0 23 C-2.0625 23.6875 -2.0625 23.6875 -4 24 C-4.45375 23.21625 -4.9075 22.4325 -5.375 21.625 C-9.09558679 17.90441321 -12.91344923 17.65037958 -18 17 C-18 16.34 -18 15.68 -18 15 C-18.9075 14.87625 -19.815 14.7525 -20.75 14.625 C-25.65253893 13.68220405 -27.27314222 13.0095247 -30.25 8.875 C-30.8275 7.92625 -31.405 6.9775 -32 6 C-30.25 5.25 -30.25 5.25 -28 5 C-25.22666082 7.21867135 -24.13126558 8.60620325 -23 12 C-21.02 11.67 -19.04 11.34 -17 11 C-17 11.66 -17 12.32 -17 13 C-13.37 13 -9.74 13 -6 13 C-5.67 12.34 -5.34 11.68 -5 11 C-3.68 10.67 -2.36 10.34 -1 10 C-0.67 6.7 -0.34 3.4 0 0 Z " fill="#09090A" transform="translate(115,173)"/>
<path d="M0 0 C2 1 2 1 2.78125 3.328125 C3.0184375 4.29234375 3.255625 5.2565625 3.5 6.25 C4.42656598 9.97640667 5.50201207 13.46164919 7 17 C7.66 17 8.32 17 9 17 C9.2165625 15.1128125 9.2165625 15.1128125 9.4375 13.1875 C9.73748686 10.57332877 10.15813297 8.52560108 11 6 C11.67449966 8.39387157 12.33976641 10.78969221 13 13.1875 C13.19078125 13.86103516 13.3815625 14.53457031 13.578125 15.22851562 C14.5825836 18.90555156 15.23704741 22.1850182 15 26 C14.67 26 14.34 26 14 26 C13.67 27.98 13.34 29.96 13 32 C12.34 32 11.68 32 11 32 C11 34.64 11 37.28 11 40 C10.690625 39.360625 10.38125 38.72125 10.0625 38.0625 C9.1654837 36.06389179 9.1654837 36.06389179 8 35 C7.69620253 33.25542045 7.43311228 31.50371757 7.1875 29.75 C5.80974628 18.61763332 5.80974628 18.61763332 1 9 C0.76807135 7.48530552 0.58784762 5.96245438 0.4375 4.4375 C0.35371094 3.61121094 0.26992187 2.78492188 0.18359375 1.93359375 C0.12300781 1.29550781 0.06242187 0.65742188 0 0 Z " fill="#1A1A1B" transform="translate(114,204)"/>
<path d="M0 0 C1.09441406 -0.02578125 2.18882812 -0.0515625 3.31640625 -0.078125 C7.76393299 0.38944978 10.32134185 2.13384185 13.4375 5.25 C13.70741906 7.93839385 13.52487357 10.54141936 13.4375 13.25 C12.7775 13.25 12.1175 13.25 11.4375 13.25 C11.1075 14.24 10.7775 15.23 10.4375 16.25 C10.4375 15.26 10.4375 14.27 10.4375 13.25 C9.7775 12.92 9.1175 12.59 8.4375 12.25 C8.7675 9.94 9.0975 7.63 9.4375 5.25 C6.45827407 5.22316013 3.47928705 5.20323963 0.5 5.1875 C-0.35013672 5.17912109 -1.20027344 5.17074219 -2.07617188 5.16210938 C-2.88505859 5.15888672 -3.69394531 5.15566406 -4.52734375 5.15234375 C-5.2762085 5.14710693 -6.02507324 5.14187012 -6.79663086 5.13647461 C-8.58917739 5.05658248 -8.58917739 5.05658248 -9.5625 6.25 C-11.22867115 6.29063832 -12.89638095 6.292721 -14.5625 6.25 C-14.5625 6.91 -14.5625 7.57 -14.5625 8.25 C-15.2225 8.25 -15.8825 8.25 -16.5625 8.25 C-16.5625 7.59 -16.5625 6.93 -16.5625 6.25 C-17.2225 5.59 -17.8825 4.93 -18.5625 4.25 C-12.38542317 0.86731507 -6.9866515 0.09898444 0 0 Z " fill="#29292A" transform="translate(182.5625,202.75)"/>
<path d="M0 0 C0.33 0 0.66 0 1 0 C0.28535765 23.57157746 0.28535765 23.57157746 -1.5234375 34.46484375 C-2.52937164 41.92689617 -2.69542656 49.48184506 -3 57 C-2.34 57.33 -1.68 57.66 -1 58 C-2.98 57.67 -4.96 57.34 -7 57 C-7.30653266 26.95979899 -7.30653266 26.95979899 -4 22 C-3.67 24.64 -3.34 27.28 -3 30 C-2.0509002 22.64447653 -1.93457144 15.47222321 -2.125 8.07080078 C-2.15607548 6.04701017 -2.08565171 4.02221609 -2 2 C-1.34 1.34 -0.68 0.68 0 0 Z " fill="#131314" transform="translate(144,194)"/>
<path d="M0 0 C1.8871875 0.0309375 1.8871875 0.0309375 3.8125 0.0625 C3.8125 0.3925 3.8125 0.7225 3.8125 1.0625 C1.5025 1.0625 -0.8075 1.0625 -3.1875 1.0625 C-3.1875 2.3825 -3.1875 3.7025 -3.1875 5.0625 C-4.1775 5.0625 -5.1675 5.0625 -6.1875 5.0625 C-6.1875 5.7225 -6.1875 6.3825 -6.1875 7.0625 C-6.8475 7.0625 -7.5075 7.0625 -8.1875 7.0625 C-8.5175 6.0725 -8.8475 5.0825 -9.1875 4.0625 C-9.208125 5.320625 -9.22875 6.57875 -9.25 7.875 C-9.26160156 8.58269531 -9.27320313 9.29039062 -9.28515625 10.01953125 C-9.27013217 12.26555461 -9.27013217 12.26555461 -8.1875 15.0625 C-9.1775 16.5475 -9.1775 16.5475 -10.1875 18.0625 C-8.2075 18.0625 -6.2275 18.0625 -4.1875 18.0625 C-5.1775 18.7225 -6.1675 19.3825 -7.1875 20.0625 C-8.55640491 21.21183799 -9.90964999 22.3799856 -11.25 23.5625 C-11.94222656 24.1709375 -12.63445312 24.779375 -13.34765625 25.40625 C-14.66119787 26.58871634 -15.93777638 27.81277638 -17.1875 29.0625 C-17.5175 27.0825 -17.8475 25.1025 -18.1875 23.0625 C-19.1775 22.7325 -20.1675 22.4025 -21.1875 22.0625 C-20.8575 17.4425 -20.5275 12.8225 -20.1875 8.0625 C-19.8575 8.0625 -19.5275 8.0625 -19.1875 8.0625 C-18.8575 11.6925 -18.5275 15.3225 -18.1875 19.0625 C-14.88087558 16.86773012 -14.88087558 16.86773012 -12.1875 14.0625 C-11.94708017 11.97042571 -12.12263864 10.09088998 -12.296875 7.99609375 C-12.1875 6.0625 -12.1875 6.0625 -9.875 3.125 C-6.49039769 0.52751451 -4.15078739 -0.06804569 0 0 Z " fill="#3D3D3E" transform="translate(172.1875,122.9375)"/>
<path d="M0 0 C0.66 1.32 1.32 2.64 2 4 C1.34 4 0.68 4 0 4 C-0.144375 5.2375 -0.28875 6.475 -0.4375 7.75 C-1.32862254 15.3881932 -1.32862254 15.3881932 -3.62890625 17.484375 C-4.26699219 17.90203125 -4.90507812 18.3196875 -5.5625 18.75 C-6.20316406 19.17796875 -6.84382812 19.6059375 -7.50390625 20.046875 C-7.99761719 20.36140625 -8.49132812 20.6759375 -9 21 C-9.08150744 18.93816367 -9.1394194 16.87538651 -9.1875 14.8125 C-9.22230469 13.66394531 -9.25710937 12.51539063 -9.29296875 11.33203125 C-8.97063192 7.66598703 -8.23177911 5.893047 -6 3 C-2.8125 1.1875 -2.8125 1.1875 0 0 Z " fill="#EBEBEB" transform="translate(162,122)"/>
<path d="M0 0 C0.33 0 0.66 0 1 0 C1.144375 1.051875 1.28875 2.10375 1.4375 3.1875 C1.76144704 5.38314104 2.11773857 7.57561077 2.5625 9.75 C3 12 3 12 3 15 C3.3062434 16.33981486 3.63451555 17.67511887 4 19 C3.34 19 2.68 19 2 19 C2.495 20.0828125 2.495 20.0828125 3 21.1875 C4.00603529 24.01697427 4.16977402 26.02895466 4 29 C4.66 29 5.32 29 6 29 C6.33 28.01 6.66 27.02 7 26 C11.26086957 32.39130435 11.26086957 32.39130435 10.625 36.3125 C10.41875 36.869375 10.2125 37.42625 10 38 C8.5393715 35.35261084 8 34.10551666 8 31 C7.34 31 6.68 31 6 31 C6 32.32 6 33.64 6 35 C5.34 35 4.68 35 4 35 C1.7545343 30.80705067 0.83357049 26.61509117 -0.1875 22 C-0.37763672 21.19304687 -0.56777344 20.38609375 -0.76367188 19.5546875 C-0.93833984 18.77351563 -1.11300781 17.99234375 -1.29296875 17.1875 C-1.53309692 16.12595703 -1.53309692 16.12595703 -1.77807617 15.04296875 C-2.02634292 12.75749444 -1.65457021 11.18870143 -1 9 C-0.78807905 7.41974995 -0.60076629 5.83601539 -0.4375 4.25 C-0.35371094 3.45078125 -0.26992187 2.6515625 -0.18359375 1.828125 C-0.12300781 1.22484375 -0.06242188 0.6215625 0 0 Z " fill="#080809" transform="translate(139,282)"/>
<path d="M0 0 C0.99 0.66 1.98 1.32 3 2 C3 2.99 3 3.98 3 5 C3.66 5 4.32 5 5 5 C5.33 4.34 5.66 3.68 6 3 C6 4.32 6 5.64 6 7 C6.66 7 7.32 7 8 7 C8.33 9.31 8.66 11.62 9 14 C8.67 13.01 8.34 12.02 8 11 C7.34 11 6.68 11 6 11 C6.33 12.32 6.66 13.64 7 15 C8.32 15 9.64 15 11 15 C11 15.99 11 16.98 11 18 C8.29120665 19.35439668 5.99066732 19.06501451 3 19 C1.57741188 15.17679443 0.75957724 12.08718695 1 8 C1.66 7.67 2.32 7.34 3 7 C1.68 7 0.36 7 -1 7 C-1.625 4.625 -1.625 4.625 -2 2 C-1.34 1.34 -0.68 0.68 0 0 Z " fill="#070708" transform="translate(154,339)"/>
<path d="M0 0 C0.66 0 1.32 0 2 0 C2.98120464 3.05263664 2.98120464 4.94736336 2 8 C1.34 8 0.68 8 0 8 C-0.04898438 8.90878906 -0.09796875 9.81757813 -0.1484375 10.75390625 C-0.69343201 19.91545193 -1.67306578 28.91758616 -3 38 C-3.33 38 -3.66 38 -4 38 C-4.02693575 35.87506859 -4.04636628 33.75004088 -4.0625 31.625 C-4.07410156 30.44164062 -4.08570313 29.25828125 -4.09765625 28.0390625 C-4 25 -4 25 -3 23 C-3.66 23 -4.32 23 -5 23 C-5.56702063 14.8569537 -4.4157874 8.43516776 -1 1 C-0.67 0.67 -0.34 0.34 0 0 Z " fill="#201F20" transform="translate(149,155)"/>
<path d="M0 0 C0.33 0 0.66 0 1 0 C1.66 6.6 2.32 13.2 3 20 C2.34 19.67 1.68 19.34 1 19 C-1.05925681 22.08888522 -1.2390374 22.70935927 -1.125 26.1875 C-1.08375 27.445625 -1.0425 28.70375 -1 30 C-3.76734851 27.23265149 -3.82123459 24.75249424 -4.5625 20.9375 C-5.0657616 16.64293125 -5.0657616 16.64293125 -7 13 C-7.07179964 11.48071962 -7.08392007 9.95832518 -7.0625 8.4375 C-7.05347656 7.61121094 -7.04445312 6.78492188 -7.03515625 5.93359375 C-7.02355469 5.29550781 -7.01195312 4.65742188 -7 4 C-6.896875 4.639375 -6.79375 5.27875 -6.6875 5.9375 C-6.460625 6.618125 -6.23375 7.29875 -6 8 C-5.01 8.33 -4.02 8.66 -3 9 C-3 9.99 -3 10.98 -3 12 C-1.82923301 8.01939223 -0.74250597 4.08378283 0 0 Z " fill="#323233" transform="translate(139,270)"/>
<path d="M0 0 C3.79824949 1.5582562 4.89070928 2.78141857 6.75 6.5 C8.21359775 10.5980737 9.15556576 13.72583059 9.1875 18.0625 C9.20167969 18.94035156 9.21585938 19.81820312 9.23046875 20.72265625 C9 23 9 23 7 25 C6.34 24.67 5.68 24.34 5 24 C4.62109375 21.70703125 4.62109375 21.70703125 4.4375 18.8125 C4.14640698 14.82036713 3.74512299 10.93850721 3 7 C2.34 7 1.68 7 1 7 C0.67 5.68 0.34 4.36 0 3 C-0.66 3 -1.32 3 -2 3 C-2 2.34 -2 1.68 -2 1 C-1.34 0.67 -0.68 0.34 0 0 Z " fill="#101011" transform="translate(106,160)"/>
<path d="M0 0 C0.66 0.99 1.32 1.98 2 3 C0.68 3 -0.64 3 -2 3 C-2 3.66 -2 4.32 -2 5 C-6.62 5.33 -11.24 5.66 -16 6 C-16 6.66 -16 7.32 -16 8 C-18.31 8 -20.62 8 -23 8 C-17.89162981 0.12459596 -8.87308155 -1.52366047 0 0 Z " fill="#1C1C1D" transform="translate(104,157)"/>
<path d="M0 0 C0.99 0.66 1.98 1.32 3 2 C3.40843923 4.71203652 3.13336867 7.2437142 3 10 C2.34 10 1.68 10 1 10 C0.79375 10.680625 0.5875 11.36125 0.375 12.0625 C-1.43493463 15.92917854 -3.89844375 19.06417577 -7 22 C-10.61867559 23.2062252 -13.92506251 23.10816918 -17.6875 23.0625 C-18.38939453 23.05798828 -19.09128906 23.05347656 -19.81445312 23.04882812 C-21.54300538 23.03706927 -23.27151365 23.01913454 -25 23 C-25.33 22.34 -25.66 21.68 -26 21 C-20.06 21 -14.12 21 -8 21 C-8 20.34 -8 19.68 -8 19 C-8.99 18.67 -9.98 18.34 -11 18 C-10.52949219 17.67128906 -10.05898437 17.34257812 -9.57421875 17.00390625 C-4.30745761 12.98023159 -2.57074657 9.34339961 -1 3 C-0.67 2.01 -0.34 1.02 0 0 Z " fill="#444445" transform="translate(195,122)"/>
<path d="M0 0 C0.33 0 0.66 0 1 0 C1 5.94 1 11.88 1 18 C1.66 18 2.32 18 3 18 C3.4021875 17.12601563 3.4021875 17.12601563 3.8125 16.234375 C5.01480991 13.97213399 6.33825913 12.19423682 8 10.25 C8.515625 9.63640625 9.03125 9.0228125 9.5625 8.390625 C11 7 11 7 13 7 C13.33 6.01 13.66 5.02 14 4 C14.99 4 15.98 4 17 4 C17.33 4.99 17.66 5.98 18 7 C17.38125 7.53625 16.7625 8.0725 16.125 8.625 C13.7217098 11.31103023 12.93977847 13.55414562 12 17 C9.66666667 17 7.33333333 17 5 17 C4.67 17.66 4.34 18.32 4 19 C2.68 19 1.36 19 0 19 C0 12.73 0 6.46 0 0 Z " fill="#383839" transform="translate(141,232)"/>
<path d="M0 0 C0.33 0 0.66 0 1 0 C1.33 2.97 1.66 5.94 2 9 C2.66 8.67 3.32 8.34 4 8 C3.34 16.25 2.68 24.5 2 33 C1.67 33 1.34 33 1 33 C0.67 27.06 0.34 21.12 0 15 C-0.33 21.93 -0.66 28.86 -1 36 C-2.32 35.34 -3.64 34.68 -5 34 C-5 32.02 -5 30.04 -5 28 C-4.67 29.32 -4.34 30.64 -4 32 C-3.34 32 -2.68 32 -2 32 C-2.01047363 31.42145264 -2.02094727 30.84290527 -2.03173828 30.24682617 C-2.36544757 9.01826886 -2.36544757 9.01826886 0 0 Z " fill="#181819" transform="translate(134,202)"/>
<path d="M0 0 C2.64 0 5.28 0 8 0 C8 0.66 8 1.32 8 2 C8.58394531 2.08765625 9.16789063 2.1753125 9.76953125 2.265625 C12.60208132 3.19823343 13.74433929 4.50756725 15.6875 6.75 C16.28949219 7.42546875 16.89148438 8.1009375 17.51171875 8.796875 C19.1553165 11.22991733 19.62128761 13.11168681 20 16 C19.34 16 18.68 16 18 16 C17.34 14.68 16.68 13.36 16 12 C15.01 12.495 15.01 12.495 14 13 C13.401875 12.21625 12.80375 11.4325 12.1875 10.625 C10.08914751 7.85425677 10.08914751 7.85425677 7 6 C7 5.34 7 4.68 7 4 C5.1128125 3.938125 5.1128125 3.938125 3.1875 3.875 C2.47980469 3.85179688 1.77210938 3.82859375 1.04296875 3.8046875 C-1.31359719 3.86745538 -1.31359719 3.86745538 -4 6 C-3.34 4.68 -2.68 3.36 -2 2 C-1.34 2 -0.68 2 0 2 C0 1.34 0 0.68 0 0 Z " fill="#1E1E1F" transform="translate(145,96)"/>
<path d="M0 0 C0.33 0 0.66 0 1 0 C1.7822914 3.46010516 2.12826944 6.65823658 2.1328125 10.203125 C2.13410156 11.18410156 2.13539063 12.16507813 2.13671875 13.17578125 C2.13285156 14.19027344 2.12898437 15.20476562 2.125 16.25 C2.12886719 17.24902344 2.13273438 18.24804688 2.13671875 19.27734375 C2.11500941 35.88499059 2.11500941 35.88499059 0 38 C-0.23287008 39.68183948 -0.41264166 41.3712416 -0.5625 43.0625 C-0.64628906 43.98160156 -0.73007813 44.90070313 -0.81640625 45.84765625 C-0.87699219 46.55792969 -0.93757812 47.26820313 -1 48 C-1.66 48 -2.32 48 -3 48 C-2.85890014 45.89551062 -2.71195825 43.7914123 -2.5625 41.6875 C-2.48128906 40.51574219 -2.40007812 39.34398437 -2.31640625 38.13671875 C-2 35 -2 35 -1 32 C-0.84730819 29.56219623 -0.74317303 27.14716099 -0.68359375 24.70703125 C-0.66281265 24.00100266 -0.64203156 23.29497406 -0.62062073 22.56755066 C-0.55532509 20.31596449 -0.49633353 18.06426338 -0.4375 15.8125 C-0.39429575 14.2844934 -0.35068084 12.75649836 -0.30664062 11.22851562 C-0.19966426 7.48579438 -0.09834078 3.7429577 0 0 Z " fill="#AEAEAF" transform="translate(137,154)"/>
<path d="M0 0 C0.33 0 0.66 0 1 0 C1.02902429 3.27081471 1.04680684 6.5415963 1.0625 9.8125 C1.07087891 10.74126953 1.07925781 11.67003906 1.08789062 12.62695312 C1.09272461 13.9659668 1.09272461 13.9659668 1.09765625 15.33203125 C1.10551147 16.56530151 1.10551147 16.56530151 1.11352539 17.82348633 C1 20 1 20 0 23 C-2.0625 23.6875 -2.0625 23.6875 -4 24 C-4.45375 23.21625 -4.9075 22.4325 -5.375 21.625 C-9.09558679 17.90441321 -12.91344923 17.65037958 -18 17 C-18 16.67 -18 16.34 -18 16 C-16.39667209 15.91878076 -14.79215974 15.86070866 -13.1875 15.8125 C-12.29417969 15.77769531 -11.40085937 15.74289063 -10.48046875 15.70703125 C-7.58352485 16.04918998 -6.77444972 16.75393573 -5 19 C-4.26665571 15.02245872 -4.26665571 15.02245872 -4 11 C-3.01 10.67 -2.02 10.34 -1 10 C-0.67 6.7 -0.34 3.4 0 0 Z " fill="#575657" transform="translate(115,173)"/>
<path d="M0 0 C0.33 0 0.66 0 1 0 C1.27263672 1.17755859 1.27263672 1.17755859 1.55078125 2.37890625 C3.161093 9.30956271 3.161093 9.30956271 5.6875 15.9375 C6.97448415 18.94046302 7.29243464 20.783219 7 24 C7.66 24 8.32 24 9 24 C8.67 25.32 8.34 26.64 8 28 C6.68 25.03 5.36 22.06 4 19 C3.67 19.66 3.34 20.32 3 21 C2.34 21 1.68 21 1 21 C0.34 17.7 -0.32 14.4 -1 11 C-0.34 11 0.32 11 1 11 C0.67 10.01 0.34 9.02 0 8 C-0.99 8.495 -0.99 8.495 -2 9 C-1.34 6.03 -0.68 3.06 0 0 Z " fill="#343435" transform="translate(142,290)"/>
<path d="M0 0 C0.66 0.33 1.32 0.66 2 1 C2 1.99 2 2.98 2 4 C7.33835539 5.92471317 12.34979382 7.39891424 18 8 C17.67 8.66 17.34 9.32 17 10 C14.33333333 10 11.66666667 10 9 10 C8.01 10.495 8.01 10.495 7 11 C6.01 10.67 5.02 10.34 4 10 C4 9.34 4 8.68 4 8 C2.02 8.33 0.04 8.66 -2 9 C-2 5.61976483 -1.12544378 3.16531063 0 0 Z " fill="#151415" transform="translate(164,133)"/>
<path d="M0 0 C6.42857143 5.28571429 6.42857143 5.28571429 9 8 C9 5.69 9 3.38 9 1 C9.33 1 9.66 1 10 1 C10 3.97 10 6.94 10 10 C8.35 9.67 6.7 9.34 5 9 C5 11.31 5 13.62 5 16 C3.98250595 13.99202501 2.9925683 11.98345042 2.0703125 9.9296875 C1.60238281 8.91261719 1.60238281 8.91261719 1.125 7.875 C0.81820312 7.19179687 0.51140625 6.50859375 0.1953125 5.8046875 C-1.25020292 3.62224265 -2.6055861 2.97179142 -5 2 C-3.35 2 -1.7 2 0 2 C0 1.34 0 0.68 0 0 Z " fill="#4E4E4F" transform="translate(133,138)"/>
<path d="M0 0 C1.4540625 0.0309375 1.4540625 0.0309375 2.9375 0.0625 C2.9375 0.7225 2.9375 1.3825 2.9375 2.0625 C3.9275 2.3925 4.9175 2.7225 5.9375 3.0625 C3.2975 3.3925 0.6575 3.7225 -2.0625 4.0625 C-2.0625 5.0525 -2.0625 6.0425 -2.0625 7.0625 C-3.0525 7.0625 -4.0425 7.0625 -5.0625 7.0625 C-5.25642201 12.58927733 -4.8104503 16.81864911 -3.0625 22.0625 C-6.0625 20.0625 -6.0625 20.0625 -7.0625 17.0625 C-7.97272021 5.75476426 -7.97272021 5.75476426 -4.0625 1.0625 C-3.0625 0.0625 -3.0625 0.0625 0 0 Z " fill="#4A4A4B" transform="translate(113.0625,113.9375)"/>
<path d="M0 0 C2 1 2 1 2.78125 3.328125 C3.0184375 4.29234375 3.255625 5.2565625 3.5 6.25 C4.42656598 9.97640667 5.50201207 13.46164919 7 17 C7.66 17 8.32 17 9 17 C9.33 16.01 9.66 15.02 10 14 C10.33 14.99 10.66 15.98 11 17 C10.34 17.66 9.68 18.32 9 19 C7.98758315 20.32392972 6.98560611 21.65599167 6 23 C5.72285156 22.07316406 5.44570312 21.14632812 5.16015625 20.19140625 C4.79792969 18.99386719 4.43570313 17.79632813 4.0625 16.5625 C3.70285156 15.36753906 3.34320313 14.17257813 2.97265625 12.94140625 C2.29110858 10.14132455 2.29110858 10.14132455 1 9 C0.76807135 7.48530552 0.58784762 5.96245438 0.4375 4.4375 C0.35371094 3.61121094 0.26992187 2.78492188 0.18359375 1.93359375 C0.12300781 1.29550781 0.06242187 0.65742188 0 0 Z M10 6 C12 8 12 8 12.1953125 9.9453125 C12.13020833 11.96354167 12.06510417 13.98177083 12 16 C11.67 16 11.34 16 11 16 C10.67 12.7 10.34 9.4 10 6 Z " fill="#3C3B3C" transform="translate(114,204)"/>
<path d="M0 0 C0.33 0.99 0.66 1.98 1 3 C-0.36328125 4.9375 -0.36328125 4.9375 -2.3125 7 C-4.45825516 9.29809072 -6.24671907 11.3700786 -8 14 C-9.1484375 12.296875 -9.1484375 12.296875 -10 10 C-9.1015625 7.640625 -9.1015625 7.640625 -7.625 5.25 C-7.14289063 4.45078125 -6.66078125 3.6515625 -6.1640625 2.828125 C-5.77992188 2.22484375 -5.39578125 1.6215625 -5 1 C-4.01 1.33 -3.02 1.66 -2 2 C-1.34 1.34 -0.68 0.68 0 0 Z " fill="#161617" transform="translate(151,247)"/>
<path d="M0 0 C2.475 0.99 2.475 0.99 5 2 C4.67 4.31 4.34 6.62 4 9 C3.34 9 2.68 9 2 9 C2.33 9.99 2.66 10.98 3 12 C3.08106686 13.55421729 3.10756898 15.11167027 3.09765625 16.66796875 C3.09282227 18.00698242 3.09282227 18.00698242 3.08789062 19.37304688 C3.07951172 20.30181641 3.07113281 21.23058594 3.0625 22.1875 C3.05798828 23.12787109 3.05347656 24.06824219 3.04882812 25.03710938 C3.03704626 27.35813712 3.02059558 29.67903644 3 32 C2.67 32 2.34 32 2 32 C1.34 21.44 0.68 10.88 0 0 Z " fill="#191819" transform="translate(137,146)"/>
<path d="M0 0 C0.66 0 1.32 0 2 0 C3.1577506 3.47325181 3.06866652 6.36067448 3 10 C1.35 10.66 -0.3 11.32 -2 12 C-3.42258812 8.17679443 -4.24042276 5.08718695 -4 1 C-2.515 1.99 -2.515 1.99 -1 3 C-0.67 2.01 -0.34 1.02 0 0 Z " fill="#0A0A0A" transform="translate(122,210)"/>
<path d="M0 0 C0.33 0 0.66 0 1 0 C0.85949111 3.8127154 0.71161266 7.62511216 0.5625 11.4375 C0.50352539 13.04141602 0.50352539 13.04141602 0.44335938 14.67773438 C0.19873496 20.83097936 -0.23534 26.88914575 -1 33 C-1.33 33 -1.66 33 -2 33 C-2.04938149 28.62176083 -2.0857104 24.24366854 -2.10986328 19.86523438 C-2.11993043 18.3752968 -2.13358518 16.88537903 -2.15087891 15.39550781 C-2.17509653 13.25580972 -2.18647564 11.11637247 -2.1953125 8.9765625 C-2.21102295 7.04417725 -2.21102295 7.04417725 -2.22705078 5.07275391 C-2 2 -2 2 0 0 Z " fill="#464647" transform="translate(144,194)"/>
<path d="M0 0 C0.99 0 1.98 0 3 0 C3 0.99 3 1.98 3 3 C3.66 3 4.32 3 5 3 C5 4.65 5 6.3 5 8 C4.67 7.01 4.34 6.02 4 5 C3.34 5 2.68 5 2 5 C1.67 7.64 1.34 10.28 1 13 C-0.5625 11.5 -0.5625 11.5 -2 9 C-2.01639538 6.18545988 -1.54914879 3.79150637 -1 1 C-0.67 0.67 -0.34 0.34 0 0 Z " fill="#080708" transform="translate(150,325)"/>
<path d="M0 0 C0.33 0.99 0.66 1.98 1 3 C1.66 3 2.32 3 3 3 C2.67 2.01 2.34 1.02 2 0 C3.8125 0.125 3.8125 0.125 6 1 C7.8125 3.9375 7.8125 3.9375 9 7 C8.67 7.66 8.34 8.32 8 9 C7.67 7.68 7.34 6.36 7 5 C6.34 5 5.68 5 5 5 C5 5.99 5 6.98 5 8 C4.34 8 3.68 8 3 8 C2.67 8.99 2.34 9.98 2 11 C0.57741188 7.17679443 -0.24042276 4.08718695 0 0 Z " fill="#252526" transform="translate(112,193)"/>
<path d="M0 0 C2.5 1.375 2.5 1.375 3.8125 4 C4.1528125 5.175625 4.1528125 5.175625 4.5 6.375 C6.15 6.045 7.8 5.715 9.5 5.375 C9.5 6.695 9.5 8.015 9.5 9.375 C2.40322581 8.40725806 2.40322581 8.40725806 -0.5 6.375 C-2.75 3.25 -2.75 3.25 -4.5 0.375 C-2.5 -0.625 -2.5 -0.625 0 0 Z " fill="#393839" transform="translate(87.5,178.625)"/>
<path d="M0 0 C3.36949443 1.68474722 4.87944386 2.8191658 7 6 C6.625 8.1875 6.625 8.1875 6 10 C5.01 10 4.02 10 3 10 C3 9.01 3 8.02 3 7 C2.34 7 1.68 7 1 7 C0.67 5.68 0.34 4.36 0 3 C-0.66 3 -1.32 3 -2 3 C-2 2.34 -2 1.68 -2 1 C-1.34 0.67 -0.68 0.34 0 0 Z " fill="#222223" transform="translate(106,160)"/>
<path d="M0 0 C0.99 0.66 1.98 1.32 3 2 C3.40843923 4.71203652 3.13336867 7.2437142 3 10 C2.34 10 1.68 10 1 10 C0.34 11.65 -0.32 13.3 -1 15 C-1.33 14.34 -1.66 13.68 -2 13 C-2.66 12.67 -3.32 12.34 -4 12 C-2.66666667 8 -1.33333333 4 0 0 Z " fill="#303031" transform="translate(195,122)"/>
<path d="M0 0 C0.28746094 0.58007812 0.57492188 1.16015625 0.87109375 1.7578125 C1.57558964 3.15705346 2.29460572 4.54918953 3.03515625 5.9296875 C5.16510003 9.96281299 6.53910638 13.39106378 7 18 C5.68 17.67 4.36 17.34 3 17 C3.66 17 4.32 17 5 17 C5 16.01 5 15.02 5 14 C3.68 14 2.36 14 1 14 C0.67 12.68 0.34 11.36 0 10 C0.66 9.67 1.32 9.34 2 9 C2 8.01 2 7.02 2 6 C1.34 6 0.68 6 0 6 C-0.33 6.66 -0.66 7.32 -1 8 C-0.67 5.36 -0.34 2.72 0 0 Z " fill="#3C3B3C" transform="translate(160,340)"/>
<path d="M0 0 C0.33 0 0.66 0 1 0 C1 2.64 1 5.28 1 8 C0.34 8 -0.32 8 -1 8 C-1 10.64 -1 13.28 -1 16 C-1.309375 15.360625 -1.61875 14.72125 -1.9375 14.0625 C-2.8345163 12.06389179 -2.8345163 12.06389179 -4 11 C-4.23287008 9.31816052 -4.41264166 7.6287584 -4.5625 5.9375 C-4.64628906 5.01839844 -4.73007813 4.09929687 -4.81640625 3.15234375 C-4.90728516 2.08693359 -4.90728516 2.08693359 -5 1 C-4.01 1.495 -4.01 1.495 -3 2 C-2.67 2.99 -2.34 3.98 -2 5 C-1.34 3.35 -0.68 1.7 0 0 Z " fill="#3F3F40" transform="translate(126,228)"/>
<path d="M0 0 C1.02245821 3.31868591 1.04443871 6.18283589 0.87890625 9.640625 C0.83056641 10.71054688 0.78222656 11.78046875 0.73242188 12.8828125 C0.67634766 13.99398437 0.62027344 15.10515625 0.5625 16.25 C0.51029297 17.37664062 0.45808594 18.50328125 0.40429688 19.6640625 C0.27477014 22.44299972 0.13980947 25.22156424 0 28 C-1.32 27.34 -2.64 26.68 -4 26 C-4 24.02 -4 22.04 -4 20 C-3.67 21.32 -3.34 22.64 -3 24 C-2.34 24 -1.68 24 -1 24 C-1.00523682 23.37955811 -1.01047363 22.75911621 -1.01586914 22.11987305 C-1.03665466 19.30909233 -1.04966517 16.49832779 -1.0625 13.6875 C-1.07087891 12.71103516 -1.07925781 11.73457031 -1.08789062 10.72851562 C-1.09111328 9.79072266 -1.09433594 8.85292969 -1.09765625 7.88671875 C-1.10289307 7.02264404 -1.10812988 6.15856934 -1.11352539 5.26831055 C-1 3 -1 3 0 0 Z " fill="#535354" transform="translate(133,210)"/>
<path d="M0 0 C0.96164063 -0.02578125 1.92328125 -0.0515625 2.9140625 -0.078125 C3.72617188 0.03015625 4.53828125 0.1384375 5.375 0.25 C6.035 1.24 6.695 2.23 7.375 3.25 C1.105 3.25 -5.165 3.25 -11.625 3.25 C-8.26341365 -0.11158635 -4.60764854 0.07451723 0 0 Z " fill="#454546" transform="translate(98.625,156.75)"/>
<path d="M0 0 C0.66 0 1.32 0 2 0 C2.98120464 3.05263664 2.98120464 4.94736336 2 8 C1.34 8 0.68 8 0 8 C0 9.65 0 11.3 0 13 C-0.66 13 -1.32 13 -2 13 C-3.19876651 7.55106131 -2.91360308 4.77830905 0 0 Z " fill="#131213" transform="translate(149,155)"/>
<path d="M0 0 C0.33 0 0.66 0 1 0 C1 3.96 1 7.92 1 12 C1.66 12 2.32 12 3 12 C3.33 12.66 3.66 13.32 4 14 C6.01669827 15.13350534 6.01669827 15.13350534 8 16 C6.35 17.65 4.7 19.3 3 21 C2.67 19.02 2.34 17.04 2 15 C1.01 14.67 0.02 14.34 -1 14 C-0.67 9.38 -0.34 4.76 0 0 Z " fill="#19181A" transform="translate(152,131)"/>
<path d="M0 0 C0.33 0.66 0.66 1.32 1 2 C4.02934491 2.65772428 4.02934491 2.65772428 7 3 C7 3.99 7 4.98 7 6 C4.29120665 7.35439668 1.99066732 7.06501451 -1 7 C-1.33 5.02 -1.66 3.04 -2 1 C-1.34 0.67 -0.68 0.34 0 0 Z " fill="#0E0E0F" transform="translate(158,351)"/>
<path d="M0 0 C2.64 0 5.28 0 8 0 C8 0.66 8 1.32 8 2 C9.32 2.33 10.64 2.66 12 3 C8.73321906 4.63339047 5.22331848 3.95949795 1.62890625 3.83984375 C-1.23457357 3.7930483 -1.23457357 3.7930483 -4 6 C-3.34 4.68 -2.68 3.36 -2 2 C-1.34 2 -0.68 2 0 2 C0 1.34 0 0.68 0 0 Z " fill="#373738" transform="translate(145,96)"/>
<path d="M0 0 C0.66 0 1.32 0 2 0 C2.33 0.99 2.66 1.98 3 3 C1.02 4.65 -0.96 6.3 -3 8 C-3.33 7.34 -3.66 6.68 -4 6 C-7.3 6 -10.6 6 -14 6 C-14 5.67 -14 5.34 -14 5 C-10.7 5 -7.4 5 -4 5 C-4 4.34 -4 3.68 -4 3 C-3.01 3 -2.02 3 -1 3 C-0.67 2.01 -0.34 1.02 0 0 Z " fill="#191819" transform="translate(188,219)"/>
<path d="M0 0 C0.33 0 0.66 0 1 0 C1.66 6.6 2.32 13.2 3 20 C2.34 19.67 1.68 19.34 1 19 C0.64984951 17.33678518 0.31802943 15.66965451 0 14 C-0.66 13.01 -1.32 12.02 -2 11 C-1.6875 8.125 -1.6875 8.125 -1 5 C-0.814375 4.05125 -0.62875 3.1025 -0.4375 2.125 C-0.293125 1.42375 -0.14875 0.7225 0 0 Z " fill="#2C2C2D" transform="translate(139,270)"/>
<path d="M0 0 C0.33 0 0.66 0 1 0 C1.3396019 1.87387477 1.67138691 3.74916697 2 5.625 C2.185625 6.66914063 2.37125 7.71328125 2.5625 8.7890625 C2.98715797 11.90574865 3.07545206 14.85930812 3 18 C2.34 18 1.68 18 1 18 C-0.4606285 15.35261084 -1 14.10551666 -1 11 C-0.34 11 0.32 11 1 11 C0.67 10.01 0.34 9.02 0 8 C-0.99 8.495 -0.99 8.495 -2 9 C-1.34 6.03 -0.68 3.06 0 0 Z " fill="#252526" transform="translate(142,290)"/>
<path d="M0 0 C0.33 0 0.66 0 1 0 C1.33 2.64 1.66 5.28 2 8 C1.01 8 0.02 8 -1 8 C-0.67 5.36 -0.34 2.72 0 0 Z M2 0 C2.66 0 3.32 0 4 0 C4 2.31 4 4.62 4 7 C3.34 7 2.68 7 2 7 C2 4.69 2 2.38 2 0 Z M-2 10 C-1.67 10 -1.34 10 -1 10 C-1 12.64 -1 15.28 -1 18 C-1.33 18 -1.66 18 -2 18 C-2 15.36 -2 12.72 -2 10 Z " fill="#141415" transform="translate(140,184)"/>
<path d="M0 0 C0.66 0.66 1.32 1.32 2 2 C2.66 1.67 3.32 1.34 4 1 C4.74926071 4.66305234 5.2380014 7.42355152 4 11 C5.32 11 6.64 11 8 11 C7.34 12.65 6.68 14.3 6 16 C2.67617413 11.66457495 1.87981332 9.52858726 2 4 C1.34 4 0.68 4 0 4 C0 2.68 0 1.36 0 0 Z " fill="#292829" transform="translate(149,335)"/>
<path d="M0 0 C0.33 0.99 0.66 1.98 1 3 C-2.3 6.63 -5.6 10.26 -9 14 C-9.33 13.01 -9.66 12.02 -10 11 C-6.7 7.37 -3.4 3.74 0 0 Z " fill="#141414" transform="translate(164,232)"/>
<path d="M0 0 C0.66 0.33 1.32 0.66 2 1 C2.625 4.0625 2.625 4.0625 3 7 C2.34 7 1.68 7 1 7 C0.67 8.32 0.34 9.64 0 11 C-2.0625 9.25 -2.0625 9.25 -4 7 C-3.9375 4.8125 -3.9375 4.8125 -3 3 C-2.01 2.67 -1.02 2.34 0 2 C0 1.34 0 0.68 0 0 Z " fill="#272728" transform="translate(121,203)"/>
<path d="M0 0 C0.33 0 0.66 0 1 0 C1.33 1.65 1.66 3.3 2 5 C2.66 4.01 3.32 3.02 4 2 C4.95465783 4.16967689 5.14401212 5.56328793 4.3984375 7.82421875 C3.64129615 9.5684743 2.82390802 11.28627131 2 13 C1.67 13 1.34 13 1 13 C-0.58593284 8.8369263 -1.31121486 5.46074638 -1 1 C-0.67 0.67 -0.34 0.34 0 0 Z " fill="#090809" transform="translate(122,222)"/>
<path d="M0 0 C2.64 0.66 5.28 1.32 8 2 C8 2.66 8 3.32 8 4 C10.31 4.33 12.62 4.66 15 5 C15 5.33 15 5.66 15 6 C3.97553517 6.57798165 3.97553517 6.57798165 0 3 C0 2.01 0 1.02 0 0 Z " fill="#404041" transform="translate(112,136)"/>
<path d="M0 0 C0.103125 0.639375 0.20625 1.27875 0.3125 1.9375 C0.539375 2.618125 0.76625 3.29875 1 4 C1.99 4.33 2.98 4.66 4 5 C4 9.62 4 14.24 4 19 C0.67994187 12.35988374 -0.29308234 7.32705857 0 0 Z " fill="#585859" transform="translate(132,274)"/>
<path d="M0 0 C2 3 2 3 2 6 C1.34 6 0.68 6 0 6 C-0.33 7.32 -0.66 8.64 -1 10 C-1.99 9.67 -2.98 9.34 -4 9 C-3.67 6.69 -3.34 4.38 -3 2 C-2.34 2 -1.68 2 -1 2 C-0.67 1.34 -0.34 0.68 0 0 Z " fill="#1D1D1E" transform="translate(155,328)"/>
<path d="M0 0 C0.33 0 0.66 0 1 0 C1.02689216 1.47906892 1.04634621 2.95827483 1.0625 4.4375 C1.07410156 5.26121094 1.08570313 6.08492187 1.09765625 6.93359375 C1 9 1 9 0 10 C-0.23287008 11.68183948 -0.41264166 13.3712416 -0.5625 15.0625 C-0.68818359 16.44115234 -0.68818359 16.44115234 -0.81640625 17.84765625 C-0.87699219 18.55792969 -0.93757812 19.26820313 -1 20 C-1.66 20 -2.32 20 -3 20 C-2.22095672 6.3667426 -2.22095672 6.3667426 0 0 Z " fill="#838384" transform="translate(137,182)"/>
<path d="M0 0 C0 0.33 0 0.66 0 1 C-2.31 1 -4.62 1 -7 1 C-7 2.32 -7 3.64 -7 5 C-7.99 5 -8.98 5 -10 5 C-10 5.66 -10 6.32 -10 7 C-10.66 7 -11.32 7 -12 7 C-12.33 5.68 -12.66 4.36 -13 3 C-8.51925805 -0.36055646 -5.39449293 -0.27429625 0 0 Z " fill="#1E1E1E" transform="translate(176,123)"/>
<path d="M0 0 C1.35439668 2.70879335 1.06501451 5.00933268 1 8 C1.33 6.02 1.66 4.04 2 2 C2.33 2 2.66 2 3 2 C4.42857143 10.57142857 4.42857143 10.57142857 2 14 C1.67 12.68 1.34 11.36 1 10 C0.34 10 -0.32 10 -1 10 C-1.02689216 8.52093108 -1.04634621 7.04172517 -1.0625 5.5625 C-1.07410156 4.73878906 -1.08570312 3.91507813 -1.09765625 3.06640625 C-1 1 -1 1 0 0 Z " fill="#333334" transform="translate(80,165)"/>
<path d="M0 0 C-3.125 6.25 -3.125 6.25 -8 8 C-7.6641593 4.89347355 -7.40950721 3.39585697 -5.125 1.1875 C-3 0 -3 0 0 0 Z " fill="#161516" transform="translate(146,100)"/>
<path d="M0 0 C0.33 0 0.66 0 1 0 C1 4.62 1 9.24 1 14 C0.34 14 -0.32 14 -1 14 C-2.51708428 4.58997722 -2.51708428 4.58997722 0 0 Z " fill="#BFC0C0" transform="translate(131,220)"/>
<path d="M0 0 C0.99 0.66 1.98 1.32 3 2 C-0.92296433 3.30765478 -3.86002433 3.1971417 -8 3 C-8.66 2.34 -9.32 1.68 -10 1 C-6.87293041 -0.5635348 -3.42017557 -0.39958487 0 0 Z " fill="#101011" transform="translate(128,138)"/>
<path d="M0 0 C1.65 0 3.3 0 5 0 C4.00233891 2.49415272 3.31383315 3.78740335 1.0625 5.3125 C-1 6 -1 6 -4 5 C-4 4.34 -4 3.68 -4 3 C-3.01 2.67 -2.02 2.34 -1 2 C-0.67 1.34 -0.34 0.68 0 0 Z " fill="#1F1F20" transform="translate(160,118)"/>
<path d="M0 0 C0.99 0.33 1.98 0.66 3 1 C1.75482035 2.13033298 0.50363348 3.25405036 -0.75 4.375 C-1.44609375 5.00148437 -2.1421875 5.62796875 -2.859375 6.2734375 C-4.84508688 7.87505183 -6.67954093 8.96520068 -9 10 C-7.63491499 6.88271632 -6.13080302 4.91336262 -3.5625 2.6875 C-2.96566406 2.15511719 -2.36882812 1.62273437 -1.75390625 1.07421875 C-1.17511719 0.71972656 -0.59632813 0.36523438 0 0 Z " fill="#D4D4D5" transform="translate(165,142)"/>
<path d="M0 0 C3.07943151 2.05295434 3.79293121 2.65734795 5 6 C5.125 9.25 5.125 9.25 5 12 C4.34 12 3.68 12 3 12 C2.49166409 10.75336669 1.99368855 9.50250613 1.5 8.25 C1.2215625 7.55390625 0.943125 6.8578125 0.65625 6.140625 C0 4 0 4 0 0 Z " fill="#181819" transform="translate(130,266)"/>
<path d="M0 0 C2 1 2 1 3.0625 3.375 C4.31436066 8.21552787 4.66344096 13.02246895 5 18 C1.23580913 12.3537137 0.55820774 6.61035485 0 0 Z " fill="#9A9A9B" transform="translate(114,204)"/>
<path d="M0 0 C3.37014328 2.20802491 5.16247623 4.41682865 7 8 C7 8.66 7 9.32 7 10 C3.59680547 8.86560182 2.31170301 7.69698684 0 5 C-0.8125 2.8125 -0.8125 2.8125 -1 1 C-0.67 0.67 -0.34 0.34 0 0 Z " fill="#121213" transform="translate(119,117)"/>
<path d="M0 0 C0.99 0 1.98 0 3 0 C2.67 2.31 2.34 4.62 2 7 C0.68 7 -0.64 7 -2 7 C-1.125 2.25 -1.125 2.25 0 0 Z " fill="#131313" transform="translate(131,131)"/>
<path d="M0 0 C1.33333333 0 2.66666667 0 4 0 C3.67 2.97 3.34 5.94 3 9 C0 6 0 6 -0.1875 2.8125 C-0.125625 1.884375 -0.06375 0.95625 0 0 Z " fill="#414142" transform="translate(145,324)"/>
<path d="M0 0 C0.66 0.33 1.32 0.66 2 1 C2 1.99 2 2.98 2 4 C2.99 4.33 3.98 4.66 5 5 C5 5.33 5 5.66 5 6 C3.35 6 1.7 6 0 6 C0 6.99 0 7.98 0 9 C-0.99 8.67 -1.98 8.34 -3 8 C-2.34 7.01 -1.68 6.02 -1 5 C-0.61500109 3.34450469 -0.27206865 1.6777567 0 0 Z " fill="#0E0D0E" transform="translate(164,133)"/>
<path d="M0 0 C0.99 0.495 0.99 0.495 2 1 C1.01 1.495 1.01 1.495 0 2 C0 1.34 0 0.68 0 0 Z M-7 2 C-4.69 2 -2.38 2 0 2 C0 2.99 0 3.98 0 5 C-2.31 5 -4.62 5 -7 5 C-7 4.01 -7 3.02 -7 2 Z " fill="#0F0F10" transform="translate(176,122)"/>
<path d="M0 0 C0 3 0 3 -1 5 C-0.34 5.33 0.32 5.66 1 6 C-0.32 6.99 -1.64 7.98 -3 9 C-3 8.34 -3 7.68 -3 7 C-3.66 6.67 -4.32 6.34 -5 6 C-3.35 4.02 -1.7 2.04 0 0 Z " fill="#39393A" transform="translate(161,229)"/>
<path d="M0 0 C0.66 0 1.32 0 2 0 C2.6875 2.8125 2.6875 2.8125 3 6 C1.5625 7.875 1.5625 7.875 0 9 C-0.33 7.02 -0.66 5.04 -1 3 C-0.34 3 0.32 3 1 3 C0.67 2.01 0.34 1.02 0 0 Z " fill="#0D0C0D" transform="translate(152,147)"/>
<path d="M0 0 C2.97 0.495 2.97 0.495 6 1 C5.67 1.99 5.34 2.98 5 4 C3.35 4 1.7 4 0 4 C0 2.68 0 1.36 0 0 Z " fill="#111112" transform="translate(156,142)"/>
<path d="M0 0 C1.32 1.32 2.64 2.64 4 4 C3.34 4 2.68 4 2 4 C1.67 4.99 1.34 5.98 1 7 C0.34 6.01 -0.32 5.02 -1 4 C-3.05003955 2.80767387 -3.05003955 2.80767387 -5 2 C-3.35 2 -1.7 2 0 2 C0 1.34 0 0.68 0 0 Z " fill="#424243" transform="translate(133,138)"/>
<path d="M0 0 C0.33 1.32 0.66 2.64 1 4 C0.01 4 -0.98 4 -2 4 C-2 5.65 -2 7.3 -2 9 C-2.33 9 -2.66 9 -3 9 C-3.33 6.69 -3.66 4.38 -4 2 C-2.68 1.34 -1.36 0.68 0 0 Z " fill="#121213" transform="translate(142,297)"/>
<path d="M0 0 C0.99 0.33 1.98 0.66 3 1 C2.67 3.31 2.34 5.62 2 8 C1.34 8 0.68 8 0 8 C-0.38063221 5.6739143 -0.71269945 3.33944736 -1 1 C-0.67 0.67 -0.34 0.34 0 0 Z " fill="#0D0D0E" transform="translate(164,208)"/>
<path d="M0 0 C0.33 0 0.66 0 1 0 C1.33 4.62 1.66 9.24 2 14 C1.01 14 0.02 14 -1 14 C-0.67 9.38 -0.34 4.76 0 0 Z " fill="#6C6B6D" transform="translate(152,131)"/>
<path d="M0 0 C1.31223496 3.93670488 0.24296256 6.12488144 -1 10 C-1.33 10 -1.66 10 -2 10 C-2.1953125 3.9453125 -2.1953125 3.9453125 -2 2 C-1.34 1.34 -0.68 0.68 0 0 Z " fill="#050505" transform="translate(139,267)"/>
<path d="M0 0 C0.33 0 0.66 0 1 0 C2.51708428 9.41002278 2.51708428 9.41002278 0 14 C-0.33 14 -0.66 14 -1 14 C-0.67 9.38 -0.34 4.76 0 0 Z " fill="#030203" transform="translate(138,184)"/>
<path d="M0 0 C0.99 0 1.98 0 3 0 C3 0.66 3 1.32 3 2 C4.32 2.33 5.64 2.66 7 3 C4.04335481 4.4783226 1.25770263 4.06032783 -2 4 C-2 3.34 -2 2.68 -2 2 C-1.34 2 -0.68 2 0 2 C0 1.34 0 0.68 0 0 Z " fill="#525253" transform="translate(150,96)"/>
<path d="M0 0 C1.32 0 2.64 0 4 0 C4 1.65 4 3.3 4 5 C3.01 5 2.02 5 1 5 C0.01 5.495 0.01 5.495 -1 6 C-0.67 4.02 -0.34 2.04 0 0 Z " fill="#1A191A" transform="translate(137,264)"/>
<path d="M0 0 C0.33 0.66 0.66 1.32 1 2 C3.97 2 6.94 2 10 2 C10 2.33 10 2.66 10 3 C8.72125 3.144375 7.4425 3.28875 6.125 3.4375 C3.74307106 3.70642746 2.15547309 3.92226346 0 5 C0 4.34 0 3.68 0 3 C-0.66 2.67 -1.32 2.34 -2 2 C-1.34 2 -0.68 2 0 2 C0 1.34 0 0.68 0 0 Z " fill="#151415" transform="translate(97,184)"/>
<path d="M0 0 C2.66666667 0.66666667 5.33333333 1.33333333 8 2 C1.71428571 4.42857143 1.71428571 4.42857143 -2 3 C-1.34 2.01 -0.68 1.02 0 0 Z " fill="#343435" transform="translate(160,140)"/>
<path d="M0 0 C2 2 2 2 2.125 5.625 C2.08375 6.73875 2.0425 7.8525 2 9 C1.34 9 0.68 9 0 9 C-0.87890625 2.84765625 -0.87890625 2.84765625 -1 1 C-0.67 0.67 -0.34 0.34 0 0 Z " fill="#0E0E0F" transform="translate(161,107)"/>
</svg>
